[Header]
FileType HTR
DataType HTRS
FileVersion 1
NumSegments 22
NumFrames 5
DataFrameRate 24
EulerRotationOrder ZYX
CalibrationUnits mm
RotationUnits Degrees
GlobalAxisofGravity Y
BoneLengthAxis Y
ScaleFactor 1.0
[SegmentNames&Hierarchy]
reference	GLOBAL
Hips	reference
Spine	Hips
Spine1	Spine
Neck	Spine1
Head	Neck
LeftShoulder	Spine1
LeftArm	LeftShoulder
LeftForeArm	LeftArm
LeftHand	LeftForeArm
RightShoulder	Spine1
RightArm	RightShoulder
RightForeArm	RightArm
RightHand	RightForeArm
LeftUpLeg	Hips
LeftLeg	LeftUpLeg
LeftFoot	LeftLeg
LeftToeBase	LeftFoot
RightUpLeg	Hips
RightLeg	RightUpLeg
RightFoot	RightLeg
RightToeBase	RightFoot
[BasePosition]
reference	0	0	0	0	0	0	1
Hips	0	0	0	0	0	0	1
Spine	0	0	0	0	-0	90	1
Spine1	0	0	0	0	0	0	1
Neck	0	0	0	-7.352430803	-7.352430803	90	1
Head	0	0	0	0	-0	90	1
LeftShoulder	0	0	0	0	0	0	1
LeftArm	0	0	0	0	0	0	1
LeftForeArm	0	0	0	0	0	0	1
LeftHand	0	0	0	0	0	0	1
RightShoulder	0	0	0	0	-0	180	1
RightArm	0	0	0	0	-0	180	1
RightForeArm	0	0	0	0	-0	180	1
RightHand	0	0	0	0	-0	180	1
LeftUpLeg	0	0	0	0	-0	-90	1
LeftLeg	0	0	0	0	-0	-90	1
LeftFoot	0	0	0	66.57150701	-66.57150701	-90	1
LeftToeBase	0	0	0	0	-90	0	1
RightUpLeg	0	0	0	0	-0	-90	1
RightLeg	0	0	0	0	-0	-90	1
RightFoot	0	0	0	66.57150701	-66.57150701	-90	1
RightToeBase	0	0	0	0	-90	0	1
[reference]
37	0	0	0	0	-0	0	1.0
38	0	0	0	0	-0	0	1.0
39	0	0	0	0	-0	0	1.0
40	0	0	0	0	-0	0	1.0
41	0	0	0	0	-0	0	1.0
[Hips]
37	1.340924263	8.475946426	1.849370003	-3.872314453	-131.1286011	1.204223633	1.0
38	1.525782943	8.311660767	2.145686626	-2.867427349	-133.3363647	1.255569935	1.0
39	1.699603677	8.04651165	2.453029633	-1.359672785	-135.2699127	0.6148472428	1.0
40	1.847248077	7.934484005	2.73920536	1.980958939	-136.0993805	-0.9625110626	1.0
41	1.955356836	7.968626976	2.947450638	2.279995441	-137.2328796	-1.409379244	1.0
[Spine]
37	0	0.7478299737	0	-2.808820724	4.057497025	-88.06598663	1.0
38	0	0.7478299737	0	-1.505500078	4.132236958	-87.72550964	1.0
39	0	0.7478299737	0	-1.655024529	3.757878304	-87.59815979	1.0
40	0	0.7478299737	0	-4.41100359	2.927639484	-88.63160706	1.0
41	0	0.7478299737	0	-4.548512459	2.872042894	-88.72359467	1.0
[Spine1]
37	0	2.049309969	0	6.850524902	1.330819011	0.1205551326	1.0
38	0	2.049309969	0	5.557004452	1.409091115	-0.6655712724	1.0
39	0	2.049309969	0	6.565212727	1.380645037	-2.12928772	1.0
40	0	2.049309969	0	9.966938019	1.213777065	-3.032295942	1.0
41	0	2.049309969	0	11.28582954	1.371699691	-4.338181496	1.0
[Neck]
37	0	2.231709957	0	0.3177585006	11.62940693	-84.32514191	1.0
38	0	2.231709957	0	0.9559656382	12.29776859	-84.12652588	1.0
39	0	2.231709957	0	-0.7605806589	13.28645611	-84.16494751	1.0
40	0	2.231709957	0	-4.343970299	14.12430573	-84.64556885	1.0
41	0	2.231709957	0	-5.8224473	14.13705921	-84.29873657	1.0
[Head]
37	0	1.413589954	0.1823999882	-10.58809948	5.059962273	-100.1166077	1.0
38	0	1.413589954	0.1823999882	-12.07417965	5.639433384	-100.6434097	1.0
39	0	1.413589954	0.1823999882	-11.98307228	6.555505276	-100.179924	1.0
40	0	1.413589954	0.1823999882	-10.41260338	7.343421459	-98.73539734	1.0
41	0	1.413589954	0.1823999882	-9.580732346	7.354444981	-98.12380219	1.0
[LeftShoulder]
37	0.3649300039	1.825889945	-0.04271000251	-3.705256224	-10.97081566	12.23048306	1.0
38	0.3649300039	1.825889945	-0.04271000251	-4.324886322	-10.06697464	9.998329163	1.0
39	0.3649300039	1.825889945	-0.04271000251	-8.820526123	-9.034884453	7.926550865	1.0
40	0.3649300039	1.825889945	-0.04271000251	-11.68116951	-8.041207314	5.77896595	1.0
41	0.3649300039	1.825889945	-0.04271000251	-12.91746998	-8.812824249	4.754094601	1.0
[LeftArm]
37	1.24003005	0	0	20.69542313	24.56792641	-63.72388458	1.0
38	1.24003005	0	0	23.78704834	19.5805912	-65.23197174	1.0
39	1.24003005	0	0	29.4124012	16.34529114	-67.44493103	1.0
40	1.24003005	0	0	34.83105469	8.97914505	-70.80636597	1.0
41	1.24003005	0	0	39.01677322	3.132625818	-72.03656769	1.0
[LeftForeArm]
37	2.847419977	0	0	21.70498848	-22.97804451	-45.75759506	1.0
38	2.847419977	0	0	14.89066696	-25.06913757	-37.88532257	1.0
39	2.847419977	0	0	8.134081841	-26.26869965	-27.13990402	1.0
40	2.847419977	0	0	2.940250874	-24.67504501	-17.16498184	1.0
41	2.847419977	0	0	1.024516582	-30.03750229	-14.09196568	1.0
[LeftHand]
37	2.258270025	0	0	12.08865929	-5.010522366	-4.313785553	1.0
38	2.258270025	0	0	6.330970287	-6.043679237	-3.194791794	1.0
39	2.258270025	0	0	1.787579536	-7.632429123	-1.515755892	1.0
40	2.258270025	0	0	-0.982806325	-8.283392906	1.972881436	1.0
41	2.258270025	0	0	-3.158703566	-9.433666229	4.648155689	1.0
[RightShoulder]
37	-0.3646599948	1.825889945	-0.04271000251	-9.027165413	11.21429157	174.3248444	1.0
38	-0.3646599948	1.825889945	-0.04271000251	-9.140491486	11.09531021	174.1692963	1.0
39	-0.3646599948	1.825889945	-0.04271000251	-10.86638451	10.75932312	174.7300568	1.0
40	-0.3646599948	1.825889945	-0.04271000251	-12.01513481	10.9689703	174.5089874	1.0
41	-0.3646599948	1.825889945	-0.04271000251	-11.60020924	10.69672585	174.6941528	1.0
[RightArm]
37	-1.24003005	0	0	69.67767334	21.82839203	-102.298584	1.0
38	-1.24003005	0	0	68.84776306	19.49511719	-100.5077667	1.0
39	-1.24003005	0	0	68.17337036	17.59159279	-99.0581665	1.0
40	-1.24003005	0	0	64.21808624	15.99127197	-97.32778168	1.0
41	-1.24003005	0	0	59.72372437	12.49322987	-95.47888947	1.0
[RightForeArm]
37	-2.847419977	0	0	-54.43045044	82.22808838	112.2596283	1.0
38	-2.847419977	0	0	-21.43653297	77.73919678	146.4341278	1.0
39	-2.847419977	0	0	-4.15617466	69.38258362	164.9015503	1.0
40	-2.847419977	0	0	6.123886585	57.21613693	175.5885315	1.0
41	-2.847419977	0	0	9.967588425	43.67746353	178.5123901	1.0
[RightHand]
37	-2.258270025	0	0	5.98800087	13.49681854	177.3913574	1.0
38	-2.258270025	0	0	5.501741409	13.73348808	176.9791718	1.0
39	-2.258270025	0	0	5.826805115	13.92085457	175.7157898	1.0
40	-2.258270025	0	0	7.842135429	13.4753933	173.902359	1.0
41	-2.258270025	0	0	9.406751633	13.09858513	169.9495544	1.0
[LeftUpLeg]
37	0.9119900465	0	0	1.241117954	-1.906175017	88.82080078	1.0
38	0.9119900465	0	0	-4.217406273	-3.257322073	88.96858215	1.0
39	0.9119900465	0	0	-10.88010597	-3.136513948	88.65211487	1.0
40	0.9119900465	0	0	-17.02048874	-0.006998077035	86.14492035	1.0
41	0.9119900465	0	0	-18.13643456	0.4444164038	87.05952454	1.0
[LeftLeg]
37	0	-4.371409893	0	35.48364258	-5.497394562	86.86602783	1.0
38	0	-4.371409893	0	41.20398331	-4.88260603	81.20828247	1.0
39	0	-4.371409893	0	49.25343704	-9.027484894	70.96251678	1.0
40	0	-4.371409893	0	54.69687271	-11.66624832	67.66703033	1.0
41	0	-4.371409893	0	53.39473343	-13.24433613	61.40800095	1.0
[LeftFoot]
37	0	-3.918009996	0	63.58723831	73.87044525	120.8945389	1.0
38	0	-3.918009996	0	75.08841705	69.493927	139.7403717	1.0
39	0	-3.918009996	0	89.7457428	61.08013153	162.9715271	1.0
40	0	-3.918009996	0	92.02107239	57.28414917	167.0980682	1.0
41	0	-3.918009996	0	96.25970459	51.59184265	170.1918488	1.0
[LeftToeBase]
37	0	-0.5927900076	1.367989898	0	0	0	1.0
38	0	-0.5927900076	1.367989898	0	0	0	1.0
39	0	-0.5927900076	1.367989898	0	0	0	1.0
40	0	-0.5927900076	1.367989898	0	0	0	1.0
41	0	-0.5927900076	1.367989898	0	0	0	1.0
[RightUpLeg]
37	-0.9119900465	0	0	-9.634256363	-15.07417297	91.50288391	1.0
38	-0.9119900465	0	0	-19.26405716	-16.10215569	94.83405304	1.0
39	-0.9119900465	0	0	-29.01231384	-16.00814056	96.43825531	1.0
40	-0.9119900465	0	0	-35.3261261	-16.69126129	96.42790222	1.0
41	-0.9119900465	0	0	-34.52188492	-17.17824745	96.02583313	1.0
[RightLeg]
37	0	-4.371409893	0	10.68811226	-3.281490326	85.18588257	1.0
38	0	-4.371409893	0	20.9019146	-1.725244164	79.42781067	1.0
39	0	-4.371409893	0	30.67460442	0.980606854	77.40538788	1.0
40	0	-4.371409893	0	33.57475281	2.303200006	77.94161987	1.0
41	0	-4.371409893	0	30.48499489	1.150376439	78.82710266	1.0
[RightFoot]
37	0	-3.918009996	0	95.52064514	59.9863739	140.9645691	1.0
38	0	-3.918009996	0	98.19094849	55.85748672	147.9069366	1.0
39	0	-3.918009996	0	95.07938385	51.73638153	147.59021	1.0
40	0	-3.918009996	0	92.3866272	46.02968597	144.371521	1.0
41	0	-3.918009996	0	86.68496704	45.02557755	138.6808929	1.0
[RightToeBase]
37	0	-0.5927900076	1.367989898	0	0	0	1.0
38	0	-0.5927900076	1.367989898	0	0	0	1.0
39	0	-0.5927900076	1.367989898	0	0	0	1.0
40	0	-0.5927900076	1.367989898	0	0	0	1.0
41	0	-0.5927900076	1.367989898	0	0	0	1.0
[EndOfFile]
